<svg xmlns="http://www.w3.org/2000/svg" width="85.602" height="85.435" viewBox="0 0 85.602 85.435">
  <g id="agregar-usuario" transform="translate(0 -0.499)">
    <g id="Grupo_32" data-name="Grupo 32" transform="translate(0 0.499)">
      <g id="Grupo_31" data-name="Grupo 31">
        <path id="Trazado_37" data-name="Trazado 37" d="M42.718.5A24.688,24.688,0,0,0,28.745,45.546,42.786,42.786,0,0,0,0,85.934H6.675A36.084,36.084,0,0,1,42.718,49.891,24.7,24.7,0,0,0,42.718.5Zm0,42.718A18.021,18.021,0,1,1,60.739,25.2,18.042,18.042,0,0,1,42.718,43.217Z" transform="translate(0 -0.499)"/>
      </g>
    </g>
    <g id="Grupo_34" data-name="Grupo 34" transform="translate(50.894 51.226)">
      <g id="Grupo_33" data-name="Grupo 33">
        <path id="Trazado_38" data-name="Trazado 38" d="M325.1,317.923V303.906h-6.675v14.017H304.4V324.6h14.017v14.017H325.1V324.6h14.017v-6.675Z" transform="translate(-304.405 -303.906)"/>
      </g>
    </g>
  </g>
</svg>
