<svg id="cancelar_1_" data-name="cancelar (1)" xmlns="http://www.w3.org/2000/svg" width="70" height="70" viewBox="0 0 70 70">
  <circle id="Elipse_2" data-name="Elipse 2" cx="35" cy="35" r="35" transform="translate(0 0)" fill="#f15249"/>
  <path id="Trazado_44" data-name="Trazado 44" d="M147.2,177.929l18.61,18.61a34.322,34.322,0,0,0,30.038-29.82L177.129,148Z" transform="translate(-126.175 -126.866)" fill="#ad0e0e"/>
  <path id="Trazado_45" data-name="Trazado 45" d="M159.96,150.314a4.191,4.191,0,0,1,0,5.821l-3.135,3.134a4.192,4.192,0,0,1-5.821,0l-24.629-24.626a4.191,4.191,0,0,1,0-5.821l3.247-3.246a4.192,4.192,0,0,1,5.821,0Z" transform="translate(-108.168 -107.477)" fill="#fff"/>
  <path id="Trazado_46" data-name="Trazado 46" d="M224.815,216,216,224.815l12.733,12.625a4.075,4.075,0,0,0,5.659,0l3.156-3.156a4.075,4.075,0,0,0,0-5.659Z" transform="translate(-185.981 -185.982)" fill="#d6d6d6"/>
  <path id="Trazado_47" data-name="Trazado 47" d="M151,126.375a4.191,4.191,0,0,1,5.821,0l3.246,3.247a4.192,4.192,0,0,1,0,5.821L135.33,159.96a4.191,4.191,0,0,1-5.821,0l-3.134-3.135a4.192,4.192,0,0,1,0-5.821Z" transform="translate(-108.168 -108.168)" fill="#fff"/>
</svg>
