<svg xmlns="http://www.w3.org/2000/svg" width="214.666" height="223.253" viewBox="0 0 214.666 223.253">
  <g id="calendario_1_" data-name="calendario (1)" transform="translate(-3.414)">
    <rect id="Rectángulo_1" data-name="Rectángulo 1" width="51.52" height="51.52" transform="translate(7.707 64.4)" fill="#83d816"/>
    <path id="Trazado_1" data-name="Trazado 1" d="M59.227,107.893H7.707A4.294,4.294,0,0,1,3.414,103.6V52.08a4.294,4.294,0,0,1,4.293-4.293h51.52A4.294,4.294,0,0,1,63.52,52.08V103.6A4.294,4.294,0,0,1,59.227,107.893ZM12,99.307H54.933V56.373H12Z" transform="translate(0 12.32)"/>
    <rect id="Rectángulo_2" data-name="Rectángulo 2" width="51.52" height="51.52" transform="translate(59.227 64.4)" fill="#83d816"/>
    <path id="Trazado_2" data-name="Trazado 2" d="M100.187,107.893H48.667a4.294,4.294,0,0,1-4.293-4.293V52.08a4.294,4.294,0,0,1,4.293-4.293h51.52a4.294,4.294,0,0,1,4.293,4.293V103.6A4.294,4.294,0,0,1,100.187,107.893ZM52.96,99.307H95.893V56.373H52.96Z" transform="translate(10.56 12.32)"/>
    <rect id="Rectángulo_3" data-name="Rectángulo 3" width="51.52" height="51.52" transform="translate(110.747 64.4)" fill="#83d816"/>
    <path id="Trazado_3" data-name="Trazado 3" d="M141.147,107.893H89.627a4.294,4.294,0,0,1-4.293-4.293V52.08a4.294,4.294,0,0,1,4.293-4.293h51.52a4.294,4.294,0,0,1,4.293,4.293V103.6A4.294,4.294,0,0,1,141.147,107.893ZM93.92,99.307h42.933V56.373H93.92Z" transform="translate(21.12 12.32)"/>
    <rect id="Rectángulo_4" data-name="Rectángulo 4" width="51.52" height="51.52" transform="translate(162.267 64.4)" fill="#ddd"/>
    <path id="Trazado_4" data-name="Trazado 4" d="M182.107,107.893h-51.52a4.294,4.294,0,0,1-4.293-4.293V52.08a4.294,4.294,0,0,1,4.293-4.293h51.52A4.294,4.294,0,0,1,186.4,52.08V103.6A4.294,4.294,0,0,1,182.107,107.893ZM134.88,99.307h42.933V56.373H134.88Z" transform="translate(31.68 12.32)"/>
    <rect id="Rectángulo_5" data-name="Rectángulo 5" width="51.52" height="51.52" transform="translate(7.707 115.92)" fill="#83d816"/>
    <path id="Trazado_5" data-name="Trazado 5" d="M59.227,148.853H7.707a4.294,4.294,0,0,1-4.293-4.293V93.04a4.294,4.294,0,0,1,4.293-4.293h51.52A4.294,4.294,0,0,1,63.52,93.04v51.52A4.294,4.294,0,0,1,59.227,148.853ZM12,140.267H54.933V97.333H12Z" transform="translate(0 22.88)"/>
    <rect id="Rectángulo_6" data-name="Rectángulo 6" width="51.52" height="51.52" transform="translate(59.227 115.92)" fill="#ddd"/>
    <path id="Trazado_6" data-name="Trazado 6" d="M100.187,148.853H48.667a4.294,4.294,0,0,1-4.293-4.293V93.04a4.294,4.294,0,0,1,4.293-4.293h51.52a4.294,4.294,0,0,1,4.293,4.293v51.52A4.294,4.294,0,0,1,100.187,148.853ZM52.96,140.267H95.893V97.333H52.96Z" transform="translate(10.56 22.88)"/>
    <rect id="Rectángulo_7" data-name="Rectángulo 7" width="51.52" height="51.52" transform="translate(110.747 115.92)" fill="#83d816"/>
    <path id="Trazado_7" data-name="Trazado 7" d="M141.147,148.853H89.627a4.294,4.294,0,0,1-4.293-4.293V93.04a4.294,4.294,0,0,1,4.293-4.293h51.52a4.294,4.294,0,0,1,4.293,4.293v51.52A4.294,4.294,0,0,1,141.147,148.853ZM93.92,140.267h42.933V97.333H93.92Z" transform="translate(21.12 22.88)"/>
    <rect id="Rectángulo_8" data-name="Rectángulo 8" width="51.52" height="51.52" transform="translate(162.267 115.92)" fill="#83d816"/>
    <path id="Trazado_8" data-name="Trazado 8" d="M182.107,148.853h-51.52a4.294,4.294,0,0,1-4.293-4.293V93.04a4.294,4.294,0,0,1,4.293-4.293h51.52A4.294,4.294,0,0,1,186.4,93.04v51.52A4.294,4.294,0,0,1,182.107,148.853Zm-47.227-8.586h42.933V97.333H134.88Z" transform="translate(31.68 22.88)"/>
    <rect id="Rectángulo_9" data-name="Rectángulo 9" width="51.52" height="51.52" transform="translate(7.707 167.44)" fill="#ddd"/>
    <path id="Trazado_9" data-name="Trazado 9" d="M59.227,189.813H7.707a4.294,4.294,0,0,1-4.293-4.293V134a4.294,4.294,0,0,1,4.293-4.293h51.52A4.294,4.294,0,0,1,63.52,134v51.52A4.294,4.294,0,0,1,59.227,189.813ZM12,181.227H54.933V138.294H12Z" transform="translate(0 33.44)"/>
    <rect id="Rectángulo_10" data-name="Rectángulo 10" width="51.52" height="51.52" transform="translate(59.227 167.44)" fill="#ddd"/>
    <path id="Trazado_10" data-name="Trazado 10" d="M100.187,189.813H48.667a4.294,4.294,0,0,1-4.293-4.293V134a4.294,4.294,0,0,1,4.293-4.293h51.52A4.294,4.294,0,0,1,104.48,134v51.52A4.294,4.294,0,0,1,100.187,189.813ZM52.96,181.227H95.893V138.294H52.96Z" transform="translate(10.56 33.44)"/>
    <rect id="Rectángulo_11" data-name="Rectángulo 11" width="51.52" height="51.52" transform="translate(110.747 167.44)" fill="#83d816"/>
    <path id="Trazado_11" data-name="Trazado 11" d="M141.147,189.813H89.627a4.294,4.294,0,0,1-4.293-4.293V134a4.294,4.294,0,0,1,4.293-4.293h51.52A4.294,4.294,0,0,1,145.44,134v51.52A4.294,4.294,0,0,1,141.147,189.813ZM93.92,181.227h42.933V138.294H93.92Z" transform="translate(21.12 33.44)"/>
    <rect id="Rectángulo_12" data-name="Rectángulo 12" width="51.52" height="51.52" transform="translate(162.267 167.44)" fill="#ddd"/>
    <path id="Trazado_12" data-name="Trazado 12" d="M182.107,189.813h-51.52a4.294,4.294,0,0,1-4.293-4.293V134a4.294,4.294,0,0,1,4.293-4.293h51.52A4.294,4.294,0,0,1,186.4,134v51.52A4.294,4.294,0,0,1,182.107,189.813Zm-47.227-8.586h42.933V138.294H134.88Z" transform="translate(31.68 33.44)"/>
    <path id="Trazado_13" data-name="Trazado 13" d="M17.067,74.32l12.88,8.587L42.827,61.44" transform="translate(3.52 15.84)" fill="#83d816"/>
    <path id="Trazado_14" data-name="Trazado 14" d="M30.827,88.08a4.287,4.287,0,0,1-2.381-.721l-12.88-8.587a4.293,4.293,0,1,1,4.762-7.144l9.134,6.09L40.027,60.111a4.293,4.293,0,0,1,7.363,4.417L34.51,86a4.292,4.292,0,0,1-3.683,2.084Z" transform="translate(2.64 14.96)"/>
    <path id="Trazado_15" data-name="Trazado 15" d="M17.067,115.28l12.88,8.587L42.827,102.4" transform="translate(3.52 26.4)" fill="#83d816"/>
    <path id="Trazado_16" data-name="Trazado 16" d="M30.827,129.04a4.287,4.287,0,0,1-2.381-.721l-12.88-8.587a4.293,4.293,0,1,1,4.762-7.144l9.134,6.09,10.564-17.607a4.293,4.293,0,0,1,7.363,4.417L34.51,126.956a4.292,4.292,0,0,1-3.683,2.084Z" transform="translate(2.64 25.52)"/>
    <path id="Trazado_17" data-name="Trazado 17" d="M98.987,115.28l12.88,8.587,12.88-21.467" transform="translate(24.64 26.4)" fill="#83d816"/>
    <path id="Trazado_18" data-name="Trazado 18" d="M112.747,129.04a4.287,4.287,0,0,1-2.381-.721l-12.88-8.587a4.293,4.293,0,1,1,4.762-7.144l9.134,6.09,10.564-17.607a4.293,4.293,0,0,1,7.363,4.417l-12.88,21.467a4.292,4.292,0,0,1-3.683,2.084Z" transform="translate(23.76 25.52)"/>
    <path id="Trazado_19" data-name="Trazado 19" d="M139.947,115.28l12.88,8.587,12.88-21.467" transform="translate(35.2 26.4)" fill="#83d816"/>
    <path id="Trazado_20" data-name="Trazado 20" d="M153.707,129.04a4.287,4.287,0,0,1-2.381-.721l-12.88-8.587a4.293,4.293,0,1,1,4.762-7.144l9.134,6.09,10.564-17.607a4.293,4.293,0,0,1,7.363,4.417l-12.88,21.467a4.292,4.292,0,0,1-3.683,2.084Z" transform="translate(34.32 25.52)"/>
    <path id="Trazado_21" data-name="Trazado 21" d="M58.027,74.32l12.88,8.587L83.787,61.44" transform="translate(14.08 15.84)" fill="#83d816"/>
    <path id="Trazado_22" data-name="Trazado 22" d="M71.787,88.08a4.287,4.287,0,0,1-2.381-.721l-12.88-8.587a4.293,4.293,0,0,1,4.762-7.144l9.134,6.09L80.987,60.111a4.293,4.293,0,0,1,7.363,4.417L75.47,86a4.292,4.292,0,0,1-3.683,2.084Z" transform="translate(13.2 14.96)"/>
    <path id="Trazado_23" data-name="Trazado 23" d="M98.987,74.32l12.88,8.587,12.88-21.467" transform="translate(24.64 15.84)" fill="#83d816"/>
    <path id="Trazado_24" data-name="Trazado 24" d="M112.747,88.08a4.287,4.287,0,0,1-2.381-.721l-12.88-8.587a4.293,4.293,0,0,1,4.762-7.144l9.134,6.09,10.564-17.607a4.293,4.293,0,0,1,7.363,4.417L116.43,86a4.292,4.292,0,0,1-3.683,2.084Z" transform="translate(23.76 14.96)"/>
    <path id="Trazado_25" data-name="Trazado 25" d="M98.987,156.24l12.88,8.587,12.88-21.467" transform="translate(24.64 36.96)" fill="#83d816"/>
    <path id="Trazado_26" data-name="Trazado 26" d="M112.747,170a4.287,4.287,0,0,1-2.381-.721l-12.88-8.587a4.293,4.293,0,0,1,4.762-7.144l9.134,6.09,10.564-17.607a4.293,4.293,0,0,1,7.363,4.417l-12.88,21.467A4.292,4.292,0,0,1,112.747,170Z" transform="translate(23.76 36.08)"/>
    <rect id="Rectángulo_13" data-name="Rectángulo 13" width="206.08" height="42.933" transform="translate(7.707 21.467)" fill="#777"/>
    <path id="Trazado_27" data-name="Trazado 27" d="M213.787,65.173H7.707A4.294,4.294,0,0,1,3.414,60.88V17.947a4.294,4.294,0,0,1,4.293-4.293h206.08a4.294,4.294,0,0,1,4.293,4.293V60.88A4.294,4.294,0,0,1,213.787,65.173ZM12,56.587H209.493V22.24H12Z" transform="translate(0 3.52)"/>
    <path id="Trazado_28" data-name="Trazado 28" d="M56.373,37.76h0a8.588,8.588,0,0,1-8.587-8.587V12a8.588,8.588,0,0,1,8.587-8.587h0A8.588,8.588,0,0,1,64.96,12V29.173A8.588,8.588,0,0,1,56.373,37.76Z" transform="translate(11.44 0.88)" fill="#feda38"/>
    <path id="Trazado_29" data-name="Trazado 29" d="M57.253,42.933a12.894,12.894,0,0,1-12.88-12.88V12.88a12.88,12.88,0,0,1,25.76,0V30.053A12.892,12.892,0,0,1,57.253,42.933Zm0-34.346A4.3,4.3,0,0,0,52.96,12.88V30.053a4.293,4.293,0,0,0,8.586,0V12.88A4.3,4.3,0,0,0,57.253,8.587Z" transform="translate(10.56)"/>
    <path id="Trazado_30" data-name="Trazado 30" d="M124.64,37.76h0a8.588,8.588,0,0,1-8.587-8.587V12a8.588,8.588,0,0,1,8.587-8.587h0A8.588,8.588,0,0,1,133.227,12V29.173A8.588,8.588,0,0,1,124.64,37.76Z" transform="translate(29.04 0.88)" fill="#feda38"/>
    <path id="Trazado_31" data-name="Trazado 31" d="M125.52,42.933a12.894,12.894,0,0,1-12.88-12.88V12.88a12.88,12.88,0,0,1,25.76,0V30.053A12.893,12.893,0,0,1,125.52,42.933Zm0-34.346a4.3,4.3,0,0,0-4.293,4.293V30.053a4.293,4.293,0,1,0,8.586,0V12.88A4.3,4.3,0,0,0,125.52,8.587Z" transform="translate(28.16)"/>
  </g>
</svg>
