<svg xmlns="http://www.w3.org/2000/svg" width="103.525" height="103.525" viewBox="0 0 103.525 103.525">
  <path id="usuario_1_" data-name="usuario (1)" d="M103.525,51.763A51.763,51.763,0,1,0,16.8,89.894l-.049.043,1.679,1.415c.109.092.228.168.337.258.892.74,1.816,1.442,2.758,2.121.3.22.61.44.92.655q1.508,1.039,3.091,1.973c.23.136.461.267.693.4,1.154.657,2.332,1.276,3.539,1.845.088.041.179.079.267.12a51.3,51.3,0,0,0,12.519,3.962l.346.062c1.363.235,2.741.424,4.135.55.169.015.339.024.51.04,1.389.115,2.793.188,4.216.188s2.8-.073,4.182-.184c.175-.015.35-.024.525-.04q2.075-.189,4.1-.54c.117-.021.235-.041.352-.064a51.294,51.294,0,0,0,12.342-3.868c.143-.066.288-.128.431-.2q1.742-.819,3.409-1.762.415-.234.826-.476c1.013-.6,2.008-1.22,2.976-1.882.348-.237.689-.488,1.033-.736.826-.595,1.638-1.208,2.426-1.85.175-.141.363-.264.535-.408l1.722-1.438-.051-.043A51.629,51.629,0,0,0,103.525,51.763Zm-99.761,0A48,48,0,1,1,83.594,87.645a14.107,14.107,0,0,0-1.681-1.011L65.976,78.666a4.172,4.172,0,0,1-2.319-3.751V69.349c.369-.456.759-.971,1.161-1.538a38.357,38.357,0,0,0,4.924-9.643,6.831,6.831,0,0,0,3.925-6.191V45.3A6.849,6.849,0,0,0,72,40.845V32.061a15.182,15.182,0,0,0-3.544-11.038c-3.469-3.96-9.084-5.965-16.69-5.965s-13.221,2-16.69,5.963a15.182,15.182,0,0,0-3.544,11.038v8.785a6.858,6.858,0,0,0-1.67,4.459v6.673a6.847,6.847,0,0,0,2.522,5.31A35.368,35.368,0,0,0,38.2,69.311v5.447a4.2,4.2,0,0,1-2.187,3.686L21.132,86.562a13.6,13.6,0,0,0-1.415.9A47.883,47.883,0,0,1,3.765,51.763ZM79.92,90.6q-.988.717-2.008,1.383c-.312.2-.623.407-.941.6-.888.55-1.792,1.073-2.714,1.562-.2.107-.408.209-.614.314a47.962,47.962,0,0,1-6.565,2.778c-.079.026-.158.055-.239.081q-1.77.587-3.584,1.039l-.011,0c-1.22.3-2.454.552-3.7.757l-.1.019c-1.169.19-2.347.328-3.529.431-.209.019-.418.032-.629.047-1.169.088-2.343.145-3.524.145S49.38,99.7,48.2,99.614c-.205-.015-.41-.028-.614-.047-1.193-.105-2.381-.247-3.558-.439l-.158-.028a47.818,47.818,0,0,1-7.322-1.828l-.222-.075q-1.776-.6-3.5-1.342l-.024-.011c-1.088-.469-2.155-.988-3.209-1.536-.137-.072-.277-.139-.412-.213-.962-.514-1.9-1.069-2.831-1.649q-.412-.26-.819-.525c-.855-.559-1.7-1.141-2.518-1.756-.085-.064-.166-.132-.25-.2l.181-.1,14.883-8.118a7.96,7.96,0,0,0,4.15-6.991l0-6.78-.433-.523a31.428,31.428,0,0,1-5.649-11.7l-.171-.745-.642-.416a3.119,3.119,0,0,1-1.447-2.62V45.3A3.074,3.074,0,0,1,34.672,43l.621-.561V31.954l-.017-.247A11.337,11.337,0,0,1,37.9,23.5c2.722-3.1,7.386-4.677,13.859-4.677,6.449,0,11.1,1.562,13.827,4.642a11.526,11.526,0,0,1,2.66,8.246l-.017,10.731.621.561A3.078,3.078,0,0,1,69.9,45.3v6.673a3.144,3.144,0,0,1-2.223,2.965l-.935.288-.3.932a34.822,34.822,0,0,1-4.7,9.472c-.493.7-.973,1.314-1.385,1.786l-.467.533v6.963a7.914,7.914,0,0,0,4.4,7.119L80.23,90c.1.051.2.1.3.156C80.33,90.31,80.123,90.451,79.92,90.6Z"/>
</svg>
