<svg xmlns="http://www.w3.org/2000/svg" width="42.739" height="96.189" viewBox="0 0 42.739 96.189">
  <g id="chico" transform="translate(-142.252)">
    <g id="Grupo_12" data-name="Grupo 12" transform="translate(142.252 26.215)">
      <g id="Grupo_11" data-name="Grupo 11" transform="translate(0)">
        <path id="Trazado_32" data-name="Trazado 32" d="M169.691,139.538H157.552a15.318,15.318,0,0,0-15.3,15.3v19.279a3.06,3.06,0,0,0,3.06,3.06h3.664l1.952,29.477a3.061,3.061,0,0,0,3.054,2.858h19.381a3.06,3.06,0,0,0,3.054-2.867l1.859-29.468h3.656a3.06,3.06,0,0,0,3.06-3.06V154.838A15.318,15.318,0,0,0,169.691,139.538Zm9.179,31.518H175.4a3.06,3.06,0,0,0-3.054,2.868l-1.858,29.468H156.846l-1.951-29.477a3.061,3.061,0,0,0-3.054-2.858h-3.468V154.838a9.191,9.191,0,0,1,9.18-9.18H169.69a9.191,9.191,0,0,1,9.18,9.18Z" transform="translate(-142.252 -139.538)"/>
      </g>
    </g>
    <g id="Grupo_14" data-name="Grupo 14" transform="translate(151.33)">
      <g id="Grupo_13" data-name="Grupo 13" transform="translate(0)">
        <path id="Trazado_33" data-name="Trazado 33" d="M202.815,0a12.24,12.24,0,1,0,12.24,12.24A12.254,12.254,0,0,0,202.815,0Zm0,18.361a6.12,6.12,0,1,1,6.12-6.12A6.126,6.126,0,0,1,202.815,18.361Z" transform="translate(-190.575)"/>
      </g>
    </g>
    <g id="Grupo_16" data-name="Grupo 16" transform="translate(160.511 68.24)">
      <g id="Grupo_15" data-name="Grupo 15" transform="translate(0)">
        <path id="Trazado_34" data-name="Trazado 34" d="M242.5,363.232a3.06,3.06,0,0,0-3.06,3.06v21.727a3.06,3.06,0,0,0,6.12,0V366.292A3.06,3.06,0,0,0,242.5,363.232Z" transform="translate(-239.441 -363.232)"/>
      </g>
    </g>
  </g>
</svg>
