<svg xmlns="http://www.w3.org/2000/svg" width="57.791" height="57.5" viewBox="0 0 57.791 57.5">
  <g id="editar" transform="translate(0 -0.261)">
    <path id="Trazado_35" data-name="Trazado 35" d="M53.338,69.656A1.439,1.439,0,0,0,51.9,71.1V83.874a4.322,4.322,0,0,1-4.318,4.318H7.2a4.322,4.322,0,0,1-4.318-4.318V46.368A4.323,4.323,0,0,1,7.2,42.05H19.976a1.439,1.439,0,1,0,0-2.879H7.2a7.2,7.2,0,0,0-7.2,7.2V83.875a7.2,7.2,0,0,0,7.2,7.2H47.581a7.2,7.2,0,0,0,7.2-7.2V71.1A1.439,1.439,0,0,0,53.338,69.656Zm0,0" transform="translate(0 -33.311)"/>
    <path id="Trazado_36" data-name="Trazado 36" d="M146.826,2.158a6.477,6.477,0,0,0-9.16,0L111.988,27.835a1.439,1.439,0,0,0-.369.634L108.242,40.66a1.439,1.439,0,0,0,1.771,1.772L122.2,39.054a1.439,1.439,0,0,0,.634-.369l25.677-25.678a6.484,6.484,0,0,0,0-9.16Zm-31.7,26.613L136.14,7.755l6.778,6.778L121.9,35.549Zm-1.354,2.717,5.415,5.415-7.49,2.075Zm32.709-20.517L144.953,12.5l-6.778-6.778L139.7,4.193a3.6,3.6,0,0,1,5.088,0l1.689,1.689A3.6,3.6,0,0,1,146.479,10.971Zm0,0" transform="translate(-92.618)"/>
  </g>
</svg>
